<svg width="211" height="453" viewBox="0 0 211 453" fill="none" xmlns="http://www.w3.org/2000/svg">
<g opacity="0.5">
<path d="M50.1606 372.485C52.7148 372.485 54.7853 370.415 54.7853 367.861C54.7853 365.306 52.7148 363.236 50.1606 363.236C47.6065 363.236 45.5359 365.306 45.5359 367.861C45.5359 370.415 47.6065 372.485 50.1606 372.485Z" fill="#CACACA"/>
<path d="M52.2223 449.712C54.7765 449.712 56.8471 447.642 56.8471 445.088C56.8471 442.533 54.7765 440.463 52.2223 440.463C49.6682 440.463 47.5977 442.533 47.5977 445.088C47.5977 447.642 49.6682 449.712 52.2223 449.712Z" fill="#CACACA"/>
<path d="M109.614 343.232C112.168 343.232 114.238 341.161 114.238 338.607C114.238 336.053 112.168 333.982 109.614 333.982C107.059 333.982 104.989 336.053 104.989 338.607C104.989 341.161 107.059 343.232 109.614 343.232Z" fill="#CACACA"/>
<path d="M74.9004 453C77.0852 453 78.8564 451.229 78.8564 449.044C78.8564 446.859 77.0852 445.088 74.9004 445.088C72.7155 445.088 70.9442 446.859 70.9442 449.044C70.9442 451.229 72.7155 453 74.9004 453Z" fill="#CACACA"/>
<path d="M121.315 325.681C123.5 325.681 125.271 323.91 125.271 321.725C125.271 319.54 123.5 317.769 121.315 317.769C119.13 317.769 117.359 319.54 117.359 321.725C117.359 323.91 119.13 325.681 121.315 325.681Z" fill="#CACACA"/>
<path d="M95.9065 356.159C98.0914 356.159 99.8626 354.388 99.8626 352.203C99.8626 350.018 98.0914 348.247 95.9065 348.247C93.7216 348.247 91.9504 350.018 91.9504 352.203C91.9504 354.388 93.7216 356.159 95.9065 356.159Z" fill="#CACACA"/>
<path d="M95.9066 448.264C97.6606 448.264 99.0826 446.842 99.0826 445.088C99.0826 443.334 97.6606 441.912 95.9066 441.912C94.1525 441.912 92.7306 443.334 92.7306 445.088C92.7306 446.842 94.1525 448.264 95.9066 448.264Z" fill="#CACACA"/>
<path d="M82.5339 369.532C84.288 369.532 85.7099 368.11 85.7099 366.356C85.7099 364.602 84.288 363.18 82.5339 363.18C80.7798 363.18 79.3579 364.602 79.3579 366.356C79.3579 368.11 80.7798 369.532 82.5339 369.532Z" fill="#CACACA"/>
<path d="M112.288 434.334C113.735 434.334 114.907 433.162 114.907 431.715C114.907 430.269 113.735 429.097 112.288 429.097C110.842 429.097 109.669 430.269 109.669 431.715C109.669 433.162 110.842 434.334 112.288 434.334Z" fill="#CACACA"/>
<path d="M127.89 302.948C129.336 302.948 130.508 301.775 130.508 300.329C130.508 298.882 129.336 297.71 127.89 297.71C126.443 297.71 125.271 298.882 125.271 300.329C125.271 301.775 126.443 302.948 127.89 302.948Z" fill="#CACACA"/>
<path d="M119.142 415.389C120.342 415.389 121.315 414.416 121.315 413.216C121.315 412.016 120.342 411.043 119.142 411.043C117.941 411.043 116.969 412.016 116.969 413.216C116.969 414.416 117.941 415.389 119.142 415.389Z" fill="#CACACA"/>
<path d="M36.5651 388.922C39.427 388.922 41.747 386.602 41.747 383.74C41.747 380.878 39.427 378.558 36.5651 378.558C33.7032 378.558 31.3832 380.878 31.3832 383.74C31.3832 386.602 33.7032 388.922 36.5651 388.922Z" fill="#CACACA"/>
<path d="M15.6703 143.088C18.5322 143.088 20.8522 140.768 20.8522 137.906C20.8522 135.044 18.5322 132.724 15.6703 132.724C12.8084 132.724 10.4884 135.044 10.4884 137.906C10.4884 140.768 12.8084 143.088 15.6703 143.088Z" fill="#CACACA"/>
<path d="M76.4604 194.74C79.3223 194.74 81.6424 192.42 81.6424 189.558C81.6424 186.696 79.3223 184.376 76.4604 184.376C73.5985 184.376 71.2786 186.696 71.2786 189.558C71.2786 192.42 73.5985 194.74 76.4604 194.74Z" fill="#CACACA"/>
<path d="M92.1733 235.471C95.9891 235.471 99.0824 232.377 99.0824 228.562C99.0824 224.746 95.9891 221.652 92.1733 221.652C88.3574 221.652 85.264 224.746 85.264 228.562C85.264 232.377 88.3574 235.471 92.1733 235.471Z" fill="#CACACA"/>
<path d="M108.833 234.412C112.065 234.412 114.684 231.793 114.684 228.561C114.684 225.33 112.065 222.711 108.833 222.711C105.602 222.711 102.983 225.33 102.983 228.561C102.983 231.793 105.602 234.412 108.833 234.412Z" fill="#CACACA"/>
<path d="M68.2695 229.397C71.5007 229.397 74.1201 226.778 74.1201 223.547C74.1201 220.316 71.5007 217.696 68.2695 217.696C65.0383 217.696 62.4189 220.316 62.4189 223.547C62.4189 226.778 65.0383 229.397 68.2695 229.397Z" fill="#CACACA"/>
<path d="M33.8351 215.969C37.0662 215.969 39.6856 213.349 39.6856 210.118C39.6856 206.887 37.0662 204.268 33.8351 204.268C30.6039 204.268 27.9845 206.887 27.9845 210.118C27.9845 213.349 30.6039 215.969 33.8351 215.969Z" fill="#CACACA"/>
<path d="M65.3165 55.9981C68.1784 55.9981 70.4985 53.6781 70.4985 50.8162C70.4985 47.9543 68.1784 45.6343 65.3165 45.6343C62.4546 45.6343 60.1346 47.9543 60.1346 50.8162C60.1346 53.6781 62.4546 55.9981 65.3165 55.9981Z" fill="#CACACA"/>
<path d="M36.5651 433.22C39.427 433.22 41.747 430.9 41.747 428.038C41.747 425.176 39.427 422.856 36.5651 422.856C33.7032 422.856 31.3832 425.176 31.3832 428.038C31.3832 430.9 33.7032 433.22 36.5651 433.22Z" fill="#CACACA"/>
<path d="M32.7763 412.046C36.3152 412.046 39.184 409.177 39.184 405.638C39.184 402.099 36.3152 399.23 32.7763 399.23C29.2374 399.23 26.3685 402.099 26.3685 405.638C26.3685 409.177 29.2374 412.046 32.7763 412.046Z" fill="#CACACA"/>
<path d="M71.6127 299.158C71.6127 299.158 77.2961 291.023 85.3197 294.366C93.3433 297.654 92.5632 309.188 85.3197 312.364C78.0762 315.54 54.674 322.616 49.3249 295.926C43.9758 269.237 91.616 245.11 111.341 270.685C131.065 296.261 111.341 322.616 93.009 339.332C74.6773 356.048 36.788 393.324 47.2075 422.02C57.6271 450.771 96.4636 437.51 102.76 428.985C109.056 420.46 117.916 403.409 108.109 393.937C98.3024 384.465 85.0411 388.867 79.3577 393.937C73.6743 399.008 77.7976 409.427 87.2699 406.864" stroke="#E1E1E1" stroke-width="2" stroke-miterlimit="10"/>
<path d="M60.0789 230.178C60.0789 230.178 67.2667 252.633 82.4225 260.155C82.4225 260.155 87.5486 259.208 91.2818 259.653C91.2818 259.653 81.5867 248.342 81.3081 236.975C81.3081 236.975 75.0117 238.48 60.0789 230.178Z" fill="#CACACA"/>
<path d="M73.5072 236.418C73.5072 236.418 45.5917 226.5 40.1312 216.08C34.6707 205.661 40.967 177.857 36.0079 167.66C36.0079 167.66 48.2662 179.863 56.067 182.314C66.4308 185.602 70.8326 187.831 75.6802 197.136" stroke="#E1E1E1" stroke-width="2" stroke-miterlimit="10"/>
<path d="M73.5074 236.418C73.5074 236.418 66.9325 200.479 80.4724 191.564C99.1941 179.25 120.145 184.321 133.963 172.731C133.963 172.731 122.318 194.907 116.411 209.729C109.001 228.339 85.8214 240.653 73.5074 236.418Z" stroke="#E1E1E1" stroke-width="2" stroke-miterlimit="10"/>
<path d="M55.2312 182.036C55.2312 182.036 55.9555 174.235 68.7153 166.657C81.4751 159.08 87.66 156.851 90.5017 147.267C90.5017 147.267 91.1146 159.915 97.1323 165.877C103.15 171.895 106.549 176.743 106.437 182.37" stroke="#E1E1E1" stroke-width="2" stroke-miterlimit="10"/>
<path d="M99.0825 230.233C114.405 236.696 133.963 229.007 142.042 220.928C150.066 212.904 158.925 209.115 158.925 209.115C149.62 210.397 148.673 207.555 137.641 204.992C126.608 202.429 117.526 207.276 117.526 207.276" stroke="#E1E1E1" stroke-width="2" stroke-miterlimit="10"/>
<path d="M60.0789 173.399C60.0789 173.399 76.5719 155.736 75.6804 135.175C74.7889 114.671 61.6391 106.591 47.7649 107.873C33.8907 109.154 24.8642 121.134 26.7586 132.167C28.6531 143.199 37.3454 145.874 42.0815 144.481C46.8177 143.088 51.3867 138.184 49.1579 133.114C46.9291 128.043 43.976 130.885 43.976 130.885" stroke="#E1E1E1" stroke-width="2" stroke-miterlimit="10"/>
<path d="M50.718 283.055C50.718 283.055 41.1899 268.122 29.1545 270.852C17.0634 273.583 13.3859 281.383 12.1043 286.955C10.8228 292.527 5.47368 296.762 3.46777 296.762C3.46777 296.762 11.77 303.281 26.0899 302.111C40.3541 300.941 49.5479 288.516 50.718 283.055Z" fill="#CACACA"/>
<path d="M56.0112 309.968C56.0112 309.968 43.4186 305.064 36.4536 310.748C29.4887 316.431 33.1661 326.238 27.037 331.587C27.037 331.587 33.2218 327.464 43.3071 326.851C53.3923 326.238 59.02 319.997 56.0112 309.968Z" fill="#CACACA"/>
<path d="M119.587 291.97C119.587 291.97 120.423 260.545 135.077 248.231C149.732 235.917 173.914 230.456 181.715 248.231C189.515 266.005 178.65 279.044 166.113 280.436C153.576 281.829 145.051 271.577 149.286 264.389C153.521 257.201 161.098 257.201 163.717 260.043" stroke="#E1E1E1" stroke-width="2" stroke-miterlimit="10"/>
<path d="M106.159 179.083C106.159 179.083 147.391 161.865 158.925 133.448C170.459 105.031 161.154 92.6615 144.772 87.6467C128.391 82.632 110.672 91.5471 107.83 107.706C104.989 123.864 118.473 128.099 126.274 126.706C134.074 125.313 144.717 117.958 139.312 109.879C133.851 101.855 126.998 108.709 127.221 113.166" stroke="#E1E1E1" stroke-width="2" stroke-miterlimit="10"/>
<path d="M166.782 66.9749C166.782 66.9749 164.999 74.2184 170.571 76.5586C176.143 78.8988 181.938 76.4472 182.885 71.7667C183.832 67.0863 185.504 57.8369 173.635 51.4848C161.823 45.0771 147.837 53.7136 144.995 61.9044C142.154 70.0952 144.383 84.4151 150.623 89.987" stroke="#E1E1E1" stroke-width="2" stroke-miterlimit="10"/>
<path d="M124.602 88.3156C124.602 88.3156 99.3611 95.002 85.9884 80.1249C72.56 65.3035 74.0088 49.0333 85.2084 40.3411C96.4081 31.6488 117.581 33.3761 119.309 46.0245C121.036 58.6728 115.186 61.1802 110.617 62.3503C106.048 63.5204 95.4608 58.3385 102.259 49.9249" stroke="#E1E1E1" stroke-width="2" stroke-miterlimit="10"/>
<path d="M55.454 108.207C55.454 108.207 38.2367 108.709 36.8437 100.908C35.4507 93.1075 39.3511 85.7525 36.0636 81.7964C36.0636 81.7964 43.0285 83.2451 51.1636 85.8082C59.8001 88.5384 63.0319 102.58 55.454 108.207Z" fill="#CACACA"/>
<path d="M29.0987 119.742C29.0987 119.742 29.9345 108.654 22.7467 105.31C15.5589 101.967 7.20097 110.659 0.0131467 104.586C0.0131467 104.586 -0.711228 119.686 8.59394 126.15C17.9548 132.669 27.9286 121.581 29.0987 119.742Z" fill="#CACACA"/>
<path d="M79.8035 46.1915C79.8035 46.1915 91.839 36.2177 89.4988 27.5812C87.1585 18.9447 83.4811 9.91808 86.6571 0C86.6571 0 81.9209 6.96494 71.2785 15.2672C60.5803 23.5694 64.7035 46.5815 79.8035 46.1915Z" fill="#CACACA"/>
<path d="M110.115 36.2178C110.115 36.2178 104.376 30.0886 105.88 24.7395C107.385 19.3905 121.593 16.0473 118.584 9.24951C118.584 9.24951 125.605 14.7657 123.098 24.7953C120.535 34.8248 114.851 35.0477 110.115 36.2178Z" fill="#CACACA"/>
<path d="M163.996 113.222C163.996 113.222 167.896 104.641 175.808 103.527C183.721 102.413 187.119 108.987 191.521 103.527C191.521 103.527 190.184 117.178 179.709 120.243C169.178 123.307 163.996 113.222 163.996 113.222Z" fill="#CACACA"/>
<path d="M151.347 146.264C151.347 146.264 149.564 156.182 159.148 157.129C168.676 158.076 170.682 143.478 178.873 142.308C178.873 142.308 170.181 142.141 165.054 139.856C159.928 137.572 154.245 140.413 151.347 146.264Z" fill="#CACACA"/>
<path d="M173.245 239.037C173.245 239.037 166.057 222.21 174.75 215.579C183.442 208.948 194.029 214.297 200.938 208.893C200.938 208.893 197.65 213.852 197.316 221.82C197.037 229.787 194.92 243.383 173.245 239.037Z" fill="#CACACA"/>
<path d="M183.442 266.117C183.442 266.117 185.671 257.982 193.193 257.87C200.715 257.703 207.011 259.82 210.02 256.867C210.02 256.867 210.076 269.571 199.266 275.478C188.457 281.384 180.656 272.97 183.442 266.117Z" fill="#CACACA"/>
<path d="M37.7911 195.465C37.7911 195.465 30.1018 186.94 24.5299 184.878C15.9491 181.813 13.1631 176.743 7.31251 171.171C7.31251 171.171 -6.0602 232.63 58.9088 230.178" stroke="#E1E1E1" stroke-width="2" stroke-miterlimit="10"/>
<path d="M64.2021 232.629C64.2021 232.629 62.8091 230.4 39.7412 228.729C16.6733 227.057 12.7729 238.591 12.7729 238.591C12.7729 238.591 26.87 230.623 39.5184 233.576C52.1667 236.529 58.073 238.702 69.6069 237.254L64.2021 232.629Z" fill="#CACACA"/>
<path d="M77.2963 236.586C77.2963 236.586 82.9797 237.588 88.4959 235.248C94.0121 232.908 96.3524 230.512 108.388 232.239C120.368 233.967 127.332 232.295 132.626 237.867C132.626 237.867 123.599 235.917 115.52 236.14C107.441 236.363 97.8568 237.867 93.1207 240.932C88.3845 243.996 76.7391 240.876 77.2963 236.586Z" fill="#CACACA"/>
<path d="M54.3398 227.782C54.3398 227.782 46.0933 215.579 54.3398 206.664C62.5863 197.749 73.2287 204.268 73.2287 204.268" stroke="#E1E1E1" stroke-width="2" stroke-miterlimit="10"/>
<path d="M72.6157 230.177C72.6157 230.177 72.0028 217.974 86.7128 210.174C101.423 202.373 113.904 214.854 113.904 214.854" stroke="#E1E1E1" stroke-width="2" stroke-miterlimit="10"/>
<path d="M29.0987 187.552C29.0987 187.552 20.5736 195.464 22.4124 206.051C24.2511 216.637 34.7264 224.382 45.4803 221.986" stroke="#E1E1E1" stroke-width="2" stroke-miterlimit="10"/>
<path d="M112.177 217.585C112.177 217.585 128.614 212.403 137.418 224.661" stroke="#E1E1E1" stroke-width="2" stroke-miterlimit="10"/>
<path d="M61.9176 184.376C61.9176 184.376 68.4925 173.79 78.8007 174.235C89.1088 174.681 95.1265 184.934 95.1265 184.934" stroke="#E1E1E1" stroke-width="2" stroke-miterlimit="10"/>
</g>
</svg>
