<svg width="1426" height="35" viewBox="0 0 1426 35" fill="none" xmlns="http://www.w3.org/2000/svg">
<line x1="4.37114e-08" y1="31.5" x2="1426" y2="31.5001" stroke="#DACFA9"/>
<line x1="-4.37114e-08" y1="0.5" x2="1426" y2="0.499875" stroke="#DACFA9"/>
<path d="M2.94263 26.75L15.5 5L28.0574 26.75H2.94263Z" stroke="#DACFA9"/>
<path d="M33.9426 26.75L46.5 5L59.0574 26.75H33.9426Z" stroke="#DACFA9"/>
<path d="M64.9426 26.75L77.5 5L90.0574 26.75H64.9426Z" stroke="#DACFA9"/>
<path d="M95.9426 26.75L108.5 5L121.057 26.75H95.9426Z" stroke="#DACFA9"/>
<path d="M126.943 26.75L139.5 5L152.057 26.75H126.943Z" stroke="#DACFA9"/>
<path d="M157.943 26.75L170.5 5L183.057 26.75H157.943Z" stroke="#DACFA9"/>
<path d="M188.943 26.75L201.5 5L214.057 26.75H188.943Z" stroke="#DACFA9"/>
<path d="M219.943 26.75L232.5 5L245.057 26.75H219.943Z" stroke="#DACFA9"/>
<path d="M250.943 26.75L263.5 5L276.057 26.75H250.943Z" stroke="#DACFA9"/>
<path d="M281.943 26.75L294.5 5L307.057 26.75H281.943Z" stroke="#DACFA9"/>
<path d="M312.943 26.75L325.5 5L338.057 26.75H312.943Z" stroke="#DACFA9"/>
<path d="M343.943 26.75L356.5 5L369.057 26.75H343.943Z" stroke="#DACFA9"/>
<path d="M374.943 26.75L387.5 5L400.057 26.75H374.943Z" stroke="#DACFA9"/>
<path d="M405.943 26.75L418.5 5L431.057 26.75H405.943Z" stroke="#DACFA9"/>
<path d="M436.943 26.75L449.5 5L462.057 26.75H436.943Z" stroke="#DACFA9"/>
<path d="M467.943 26.75L480.5 5L493.057 26.75H467.943Z" stroke="#DACFA9"/>
<path d="M498.943 26.75L511.5 5L524.057 26.75H498.943Z" stroke="#DACFA9"/>
<path d="M529.943 26.75L542.5 5L555.057 26.75H529.943Z" stroke="#DACFA9"/>
<path d="M560.943 26.75L573.5 5L586.057 26.75H560.943Z" stroke="#DACFA9"/>
<path d="M591.943 26.75L604.5 5L617.057 26.75H591.943Z" stroke="#DACFA9"/>
<path d="M622.943 26.75L635.5 5L648.057 26.75H622.943Z" stroke="#DACFA9"/>
<path d="M653.943 26.75L666.5 5L679.057 26.75H653.943Z" stroke="#DACFA9"/>
<path d="M684.943 26.75L697.5 5L710.057 26.75H684.943Z" stroke="#DACFA9"/>
<path d="M715.943 26.75L728.5 5L741.057 26.75H715.943Z" stroke="#DACFA9"/>
<path d="M746.943 26.75L759.5 5L772.057 26.75H746.943Z" stroke="#DACFA9"/>
<path d="M777.943 26.75L790.5 5L803.057 26.75H777.943Z" stroke="#DACFA9"/>
<path d="M808.943 26.75L821.5 5L834.057 26.75H808.943Z" stroke="#DACFA9"/>
<path d="M839.943 26.75L852.5 5L865.057 26.75H839.943Z" stroke="#DACFA9"/>
<path d="M870.943 26.75L883.5 5L896.057 26.75H870.943Z" stroke="#DACFA9"/>
<path d="M901.943 26.75L914.5 5L927.057 26.75H901.943Z" stroke="#DACFA9"/>
<path d="M932.943 26.75L945.5 5L958.057 26.75H932.943Z" stroke="#DACFA9"/>
<path d="M963.943 26.75L976.5 5L989.057 26.75H963.943Z" stroke="#DACFA9"/>
<path d="M994.943 26.75L1007.5 5L1020.06 26.75H994.943Z" stroke="#DACFA9"/>
<path d="M1025.94 26.75L1038.5 5L1051.06 26.75H1025.94Z" stroke="#DACFA9"/>
<path d="M1056.94 26.75L1069.5 5L1082.06 26.75H1056.94Z" stroke="#DACFA9"/>
<path d="M1087.94 26.75L1100.5 5L1113.06 26.75H1087.94Z" stroke="#DACFA9"/>
<path d="M1118.94 26.75L1131.5 5L1144.06 26.75H1118.94Z" stroke="#DACFA9"/>
<path d="M1149.94 26.75L1162.5 5L1175.06 26.75H1149.94Z" stroke="#DACFA9"/>
<path d="M1180.94 26.75L1193.5 5L1206.06 26.75H1180.94Z" stroke="#DACFA9"/>
<path d="M1211.94 26.75L1224.5 5L1237.06 26.75H1211.94Z" stroke="#DACFA9"/>
<path d="M1242.94 26.75L1255.5 5L1268.06 26.75H1242.94Z" stroke="#DACFA9"/>
<path d="M1273.94 26.75L1286.5 5L1299.06 26.75H1273.94Z" stroke="#DACFA9"/>
<path d="M1304.94 26.75L1317.5 5L1330.06 26.75H1304.94Z" stroke="#DACFA9"/>
<path d="M1335.94 26.75L1348.5 5L1361.06 26.75H1335.94Z" stroke="#DACFA9"/>
<path d="M1366.94 26.75L1379.5 5L1392.06 26.75H1366.94Z" stroke="#DACFA9"/>
<path d="M1397.94 26.75L1410.5 5L1423.06 26.75H1397.94Z" stroke="#DACFA9"/>
</svg>
