<svg width="1440" height="35" viewBox="0 0 1440 35" fill="none" xmlns="http://www.w3.org/2000/svg">
<line y1="31.5" x2="1440" y2="31.5" stroke="#F38A4E"/>
<line y1="0.5" x2="1440" y2="0.5" stroke="#F38A4E"/>
<path d="M16.9426 26.75L29.5 5L42.0574 26.75H16.9426Z" stroke="#F38A4E"/>
<path d="M47.9426 26.75L60.5 5L73.0574 26.75H47.9426Z" stroke="#F38A4E"/>
<path d="M78.9426 26.75L91.5 5L104.057 26.75H78.9426Z" stroke="#F38A4E"/>
<path d="M109.943 26.75L122.5 5L135.057 26.75H109.943Z" stroke="#F38A4E"/>
<path d="M140.943 26.75L153.5 5L166.057 26.75H140.943Z" stroke="#F38A4E"/>
<path d="M171.943 26.75L184.5 5L197.057 26.75H171.943Z" stroke="#F38A4E"/>
<path d="M202.943 26.75L215.5 5L228.057 26.75H202.943Z" stroke="#F38A4E"/>
<path d="M233.943 26.75L246.5 5L259.057 26.75H233.943Z" stroke="#F38A4E"/>
<path d="M264.943 26.75L277.5 5L290.057 26.75H264.943Z" stroke="#F38A4E"/>
<path d="M295.943 26.75L308.5 5L321.057 26.75H295.943Z" stroke="#F38A4E"/>
<path d="M326.943 26.75L339.5 5L352.057 26.75H326.943Z" stroke="#F38A4E"/>
<path d="M357.943 26.75L370.5 5L383.057 26.75H357.943Z" stroke="#F38A4E"/>
<path d="M388.943 26.75L401.5 5L414.057 26.75H388.943Z" stroke="#F38A4E"/>
<path d="M419.943 26.75L432.5 5L445.057 26.75H419.943Z" stroke="#F38A4E"/>
<path d="M450.943 26.75L463.5 5L476.057 26.75H450.943Z" stroke="#F38A4E"/>
<path d="M481.943 26.75L494.5 5L507.057 26.75H481.943Z" stroke="#F38A4E"/>
<path d="M512.943 26.75L525.5 5L538.057 26.75H512.943Z" stroke="#F38A4E"/>
<path d="M543.943 26.75L556.5 5L569.057 26.75H543.943Z" stroke="#F38A4E"/>
<path d="M574.943 26.75L587.5 5L600.057 26.75H574.943Z" stroke="#F38A4E"/>
<path d="M605.943 26.75L618.5 5L631.057 26.75H605.943Z" stroke="#F38A4E"/>
<path d="M636.943 26.75L649.5 5L662.057 26.75H636.943Z" stroke="#F38A4E"/>
<path d="M667.943 26.75L680.5 5L693.057 26.75H667.943Z" stroke="#F38A4E"/>
<path d="M698.943 26.75L711.5 5L724.057 26.75H698.943Z" stroke="#F38A4E"/>
<path d="M729.943 26.75L742.5 5L755.057 26.75H729.943Z" stroke="#F38A4E"/>
<path d="M760.943 26.75L773.5 5L786.057 26.75H760.943Z" stroke="#F38A4E"/>
<path d="M791.943 26.75L804.5 5L817.057 26.75H791.943Z" stroke="#F38A4E"/>
<path d="M822.943 26.75L835.5 5L848.057 26.75H822.943Z" stroke="#F38A4E"/>
<path d="M853.943 26.75L866.5 5L879.057 26.75H853.943Z" stroke="#F38A4E"/>
<path d="M884.943 26.75L897.5 5L910.057 26.75H884.943Z" stroke="#F38A4E"/>
<path d="M915.943 26.75L928.5 5L941.057 26.75H915.943Z" stroke="#F38A4E"/>
<path d="M946.943 26.75L959.5 5L972.057 26.75H946.943Z" stroke="#F38A4E"/>
<path d="M977.943 26.75L990.5 5L1003.06 26.75H977.943Z" stroke="#F38A4E"/>
<path d="M1008.94 26.75L1021.5 5L1034.06 26.75H1008.94Z" stroke="#F38A4E"/>
<path d="M1039.94 26.75L1052.5 5L1065.06 26.75H1039.94Z" stroke="#F38A4E"/>
<path d="M1070.94 26.75L1083.5 5L1096.06 26.75H1070.94Z" stroke="#F38A4E"/>
<path d="M1101.94 26.75L1114.5 5L1127.06 26.75H1101.94Z" stroke="#F38A4E"/>
<path d="M1132.94 26.75L1145.5 5L1158.06 26.75H1132.94Z" stroke="#F38A4E"/>
<path d="M1163.94 26.75L1176.5 5L1189.06 26.75H1163.94Z" stroke="#F38A4E"/>
<path d="M1194.94 26.75L1207.5 5L1220.06 26.75H1194.94Z" stroke="#F38A4E"/>
<path d="M1225.94 26.75L1238.5 5L1251.06 26.75H1225.94Z" stroke="#F38A4E"/>
<path d="M1256.94 26.75L1269.5 5L1282.06 26.75H1256.94Z" stroke="#F38A4E"/>
<path d="M1287.94 26.75L1300.5 5L1313.06 26.75H1287.94Z" stroke="#F38A4E"/>
<path d="M1318.94 26.75L1331.5 5L1344.06 26.75H1318.94Z" stroke="#F38A4E"/>
<path d="M1349.94 26.75L1362.5 5L1375.06 26.75H1349.94Z" stroke="#F38A4E"/>
<path d="M1380.94 26.75L1393.5 5L1406.06 26.75H1380.94Z" stroke="#F38A4E"/>
<path d="M1411.94 26.75L1424.5 5L1437.06 26.75H1411.94Z" stroke="#F38A4E"/>
</svg>
