<svg width="26" height="28" viewBox="0 0 26 28" fill="none" xmlns="http://www.w3.org/2000/svg">
<g clip-path="url(#clip0)">
<path d="M23.5625 0H5.68751C5.2384 0 4.875 0.391349 4.875 0.875009V3.49999H6.50002V1.75002H22.75V26.25H6.50002V24.5H4.875V27.125C4.875 27.6087 5.2384 28 5.68751 28H23.5625C24.0116 28 24.375 27.6087 24.375 27.125V0.875009C24.375 0.391349 24.0116 0 23.5625 0V0Z" fill="#B4BCBE"/>
<path d="M9.65159 18.6314L10.8005 19.8687L16.25 14L10.8005 8.13135L9.65159 9.36865L13.1396 13.125H1.625V14.875H13.1397L9.65159 18.6314Z" fill="#B4BCBE"/>
</g>
<defs>
<clipPath id="clip0">
<rect width="26" height="28" fill="white"/>
</clipPath>
</defs>
</svg>
