<svg width="44" height="44" viewBox="0 0 44 44" fill="none" xmlns="http://www.w3.org/2000/svg">
<g clip-path="url(#clip0)">
<path d="M39.5429 1.7763C37.1745 -0.592424 33.3346 -0.592424 30.9659 1.7763L3.50506 29.2375C3.47545 29.2671 3.44781 29.2991 3.42214 29.3323C3.41582 29.3405 3.4099 29.3492 3.40358 29.3575C3.38345 29.3852 3.36449 29.414 3.34712 29.4436C3.34317 29.4503 3.33883 29.457 3.33488 29.4641C3.31435 29.5016 3.29579 29.5403 3.27999 29.5798C3.2792 29.5818 3.27881 29.5838 3.27802 29.5854C3.26381 29.6225 3.25156 29.6608 3.24209 29.6991C3.2409 29.7038 3.23853 29.7081 3.23775 29.7129L0.0579975 42.7493C-0.0257114 43.0925 0.0757658 43.4541 0.325313 43.7037C0.574859 43.9532 0.936544 44.0547 1.27928 43.971L14.3165 40.7909C14.3217 40.7897 14.326 40.7877 14.3307 40.7865C14.369 40.7766 14.4065 40.7648 14.4433 40.751C14.4452 40.7502 14.4476 40.7494 14.4496 40.7486C14.4891 40.7328 14.5278 40.7143 14.5649 40.6937C14.572 40.6898 14.5791 40.6854 14.5862 40.6811C14.6154 40.6637 14.6442 40.6452 14.6719 40.625C14.6802 40.6187 14.6885 40.6128 14.6968 40.6065C14.7303 40.5808 14.7619 40.5532 14.7919 40.5235L42.2527 13.0631C44.6175 10.6929 44.6175 6.85568 42.2527 4.48577L39.5429 1.7763ZM14.0772 38.3795L12.2218 36.5245L34.6088 14.1375L36.4642 15.9926L14.0772 38.3795ZM10.7921 35.0943L8.93349 33.2362L31.3212 10.8496L33.1794 12.7078L10.7921 35.0943ZM7.50413 31.8064L5.64911 29.9518L28.0365 7.56523L29.8915 9.42064L7.50413 31.8064ZM4.77491 31.9371L12.0903 39.2525L2.41606 41.6129L4.77491 31.9371ZM40.8234 11.6334L37.894 14.5632L29.4658 6.13547L32.3956 3.20566C33.9746 1.62704 36.5345 1.62704 38.1135 3.20566L40.8234 5.91553C42.3996 7.49534 42.3996 10.0536 40.8234 11.6334Z" fill="#FDFBFE"/>
</g>
<defs>
<clipPath id="clip0">
<rect width="44" height="44" fill="white"/>
</clipPath>
</defs>
</svg>
