<svg width="51" height="51" viewBox="0 0 51 51" fill="none" xmlns="http://www.w3.org/2000/svg">
<g clip-path="url(#clip0)">
<path d="M47.071 32.0378C46.3694 32.0378 45.8008 32.6064 45.8008 33.308V44.5856C45.7984 46.6893 44.0941 48.3941 41.9903 48.3961H6.35082C4.24711 48.3941 2.54281 46.6893 2.54033 44.5856V11.4864C2.54281 9.38323 4.24711 7.67843 6.35082 7.67595H17.6285C18.3301 7.67595 18.8987 7.10735 18.8987 6.40578C18.8987 5.70471 18.3301 5.13562 17.6285 5.13562H6.35082C2.84497 5.13959 0.00396926 7.98059 0 11.4864V44.5861C0.00396926 48.092 2.84497 50.933 6.35082 50.937H41.9903C45.4962 50.933 48.3372 48.092 48.3412 44.5861V33.308C48.3412 32.6064 47.7726 32.0378 47.071 32.0378Z" fill="#B4BCBE"/>
<path d="M47.838 1.86752C45.6058 -0.364694 41.9868 -0.364694 39.7546 1.86752L17.0941 24.528C16.9388 24.6833 16.8266 24.8759 16.7681 25.0872L13.7882 35.8454C13.6656 36.2865 13.7902 36.7588 14.1137 37.0828C14.4376 37.4063 14.91 37.5309 15.3511 37.4088L26.1093 34.4284C26.3206 34.3698 26.5131 34.2577 26.6684 34.1024L49.3285 11.4414C51.5572 9.20768 51.5572 5.59168 49.3285 3.35798L47.838 1.86752ZM19.8616 25.3537L38.4075 6.80727L44.3887 12.7885L25.8423 31.3348L19.8616 25.3537ZM18.6669 27.7511L23.4454 32.5301L16.8356 34.3614L18.6669 27.7511ZM47.5324 9.64529L46.1853 10.9924L40.2036 5.01068L41.5512 3.66361C42.7911 2.42371 44.8015 2.42371 46.0414 3.66361L47.5324 5.15407C48.7703 6.39546 48.7703 8.4044 47.5324 9.64529Z" fill="#B4BCBE"/>
</g>
<defs>
<clipPath id="clip0">
<rect width="51" height="51" fill="white"/>
</clipPath>
</defs>
</svg>
