<svg width="44" height="44" viewBox="0 0 44 44" fill="none" xmlns="http://www.w3.org/2000/svg">
<g clip-path="url(#clip0)">
<path d="M27.5684 38.0829C28.0888 38.0829 28.5106 37.6612 28.5106 37.1408V18.3913C28.5106 17.8709 28.0888 17.4491 27.5684 17.4491C27.048 17.4491 26.6262 17.8709 26.6262 18.3913V37.1408C26.6262 37.6612 27.048 38.0829 27.5684 38.0829Z" fill="#FDFBFE"/>
<path d="M16.3753 38.0829C16.8957 38.0829 17.3175 37.6612 17.3175 37.1408V18.3913C17.3175 17.8709 16.8957 17.4491 16.3753 17.4491C15.8549 17.4491 15.4331 17.8709 15.4331 18.3913V37.1408C15.4331 37.6612 15.8549 38.0829 16.3753 38.0829Z" fill="#FDFBFE"/>
<path d="M34.5216 4.97481H29.924V3.76874C29.9214 1.6882 28.2354 0.00220824 26.1553 0H17.7886C15.7081 0.00220824 14.0221 1.6882 14.0199 3.76874V4.97481H9.42194C7.3414 4.97701 5.65541 6.66301 5.6532 8.74354V14.0198C5.6532 14.5402 6.07497 14.962 6.59538 14.962H8.34799V39.0064C8.34799 40.3785 8.83197 41.6431 9.71085 42.568C10.5809 43.4877 11.7929 44.0063 13.0589 44H30.885C32.151 44.0063 33.363 43.4877 34.2327 42.568C35.1119 41.6434 35.5959 40.3785 35.5959 39.0064V14.962H37.3481C37.8685 14.962 38.2903 14.5402 38.2903 14.0198V8.74354C38.2881 6.66301 36.6021 4.97701 34.5216 4.97481ZM15.9042 3.76874C15.9053 2.72865 16.7485 1.88547 17.7886 1.88437H26.1553C27.1954 1.88547 28.0382 2.72865 28.0396 3.76874V4.97481H15.9042V3.76874ZM33.7115 39.0064C33.7115 40.7789 32.4959 42.1156 30.885 42.1156H13.0589C11.4476 42.1156 10.2324 40.7789 10.2324 39.0064V14.962H33.7115V39.0064ZM36.4059 13.0776H7.53757V8.74354C7.53867 7.70309 8.38185 6.86028 9.42194 6.85918H34.5216C35.562 6.86028 36.4048 7.70309 36.4059 8.74354V13.0776Z" fill="#FDFBFE"/>
</g>
<defs>
<clipPath id="clip0">
<rect width="44" height="44" fill="white"/>
</clipPath>
</defs>
</svg>
